HIERARCHY
ROOT hip
{
  OFFSET 0 0 0
  CHANNELS 6 Xposition Yposition Zposition Zrotation Yrotation Xrotation
  JOINT abdomen
  {
    OFFSET 0 20.6881 -0.73152
    CHANNELS 3 Zrotation Xrotation Yrotation
    JOINT chest
    {
      OFFSET 0 11.7043 -0.48768
      CHANNELS 3 Zrotation Xrotation Yrotation
      JOINT neck
      {
        OFFSET 0 22.1894 -2.19456
        CHANNELS 3 Zrotation Xrotation Yrotation
        JOINT head
        {
          OFFSET -0.24384 7.07133 1.2192
          CHANNELS 3 Zrotation Xrotation Yrotation
          JOINT leftEye
          {
            OFFSET 4.14528 8.04674 8.04672
            CHANNELS 3 Zrotation Xrotation Yrotation
            End Site
            {
              OFFSET 1 0 0
            }
          }
          JOINT rightEye
          {
            OFFSET -3.6576 8.04674 8.04672
            CHANNELS 3 Zrotation Xrotation Yrotation
            End Site
            {
              OFFSET 1 0 0
            }
          }
        }
      }
      JOINT rCollar
      {
        OFFSET -2.68224 19.2634 -4.8768
        CHANNELS 3 Zrotation Xrotation Yrotation
        JOINT rShldr
        {
          OFFSET -8.77824 -1.95073 1.46304
          CHANNELS 3 Zrotation Xrotation Yrotation
          JOINT rForeArm
          {
            OFFSET -28.1742 -1.7115 0.48768
            CHANNELS 3 Zrotation Xrotation Yrotation
            JOINT rHand
            {
              OFFSET -22.5879 0.773209 7.07136
              CHANNELS 3 Zrotation Xrotation Yrotation
              JOINT rThumb1
              {
                OFFSET -1.2192 -0.487915 3.41376
                CHANNELS 3 Zrotation Xrotation Yrotation
                JOINT rThumb2
                {
                  OFFSET -3.37035 -0.52449 3.41376
                  CHANNELS 3 Zrotation Xrotation Yrotation
                  End Site
                  {
                    OFFSET -1.78271 -1.18214 1.43049
                  }
                }
              }
              JOINT rIndex1
              {
                OFFSET -7.75947 0.938293 5.60832
                CHANNELS 3 Zrotation Xrotation Yrotation
                JOINT rIndex2
                {
                  OFFSET -2.54057 -0.884171 1.56538
                  CHANNELS 3 Zrotation Xrotation Yrotation
                  End Site
                  {
                    OFFSET -1.62519 -0.234802 1.16502
                  }
                }
              }
              JOINT rMid1
              {
                OFFSET -8.24714 1.18213 3.41376
                CHANNELS 3 Zrotation Xrotation Yrotation
                JOINT rMid2
                {
                  OFFSET -3.10165 -0.590103 1.0647
                  CHANNELS 3 Zrotation Xrotation Yrotation
                  End Site
                  {
                    OFFSET -2.48547 -0.328903 0.83742
                  }
                }
              }
              JOINT rRing1
              {
                OFFSET -8.82822 0.546677 1.51678
                CHANNELS 3 Zrotation Xrotation Yrotation
                JOINT rRing2
                {
                  OFFSET -2.60934 -0.819778 -0.0198488
                  CHANNELS 3 Zrotation Xrotation Yrotation
                  End Site
                  {
                    OFFSET -2.33842 -0.294052 0.168128
                  }
                }
              }
              JOINT rPinky1
              {
                OFFSET -8.27202 -0.0477905 -0.4584
                CHANNELS 3 Zrotation Xrotation Yrotation
                JOINT rPinky2
                {
                  OFFSET -1.82734 -0.647385 -0.700984
                  CHANNELS 3 Zrotation Xrotation Yrotation
                  End Site
                  {
                    OFFSET -1.69225 -0.51767 -0.607171
                  }
                }
              }
            }
          }
        }
      }
      JOINT lCollar
      {
        OFFSET 2.68224 19.2634 -4.8768
        CHANNELS 3 Zrotation Xrotation Yrotation
        JOINT lShldr
        {
          OFFSET 8.77824 -1.95073 1.46304
          CHANNELS 3 Zrotation Xrotation Yrotation
          JOINT lForeArm
          {
            OFFSET 28.1742 -1.7115 0.48768
            CHANNELS 3 Zrotation Xrotation Yrotation
            JOINT lHand
            {
              OFFSET 22.5879 0.773209 7.07136
              CHANNELS 3 Zrotation Xrotation Yrotation
              JOINT lThumb1
              {
                OFFSET 1.2192 -0.487915 3.41376
                CHANNELS 3 Zrotation Xrotation Yrotation
                JOINT lThumb2
                {
                  OFFSET 3.37035 -0.52449 3.41376
                  CHANNELS 3 Zrotation Xrotation Yrotation
                  End Site
                  {
                    OFFSET 1.78271 -1.18214 1.43049
                  }
                }
              }
              JOINT lIndex1
              {
                OFFSET 7.75947 0.938293 5.60832
                CHANNELS 3 Zrotation Xrotation Yrotation
                JOINT lIndex2
                {
                  OFFSET 2.54057 -0.884171 1.56538
                  CHANNELS 3 Zrotation Xrotation Yrotation
                  End Site
                  {
                    OFFSET 1.62519 -0.234802 1.16502
                  }
                }
              }
              JOINT lMid1
              {
                OFFSET 8.24714 1.18213 3.41376
                CHANNELS 3 Zrotation Xrotation Yrotation
                JOINT lMid2
                {
                  OFFSET 3.10165 -0.590103 1.0647
                  CHANNELS 3 Zrotation Xrotation Yrotation
                  End Site
                  {
                    OFFSET 2.48547 -0.328903 0.83742
                  }
                }
              }
              JOINT lRing1
              {
                OFFSET 8.82822 0.546677 1.51678
                CHANNELS 3 Zrotation Xrotation Yrotation
                JOINT lRing2
                {
                  OFFSET 2.60934 -0.819778 -0.0198488
                  CHANNELS 3 Zrotation Xrotation Yrotation
                  End Site
                  {
                    OFFSET 2.33842 -0.294052 0.168128
                  }
                }
              }
              JOINT lPinky1
              {
                OFFSET 8.27202 -0.0477905 -0.4584
                CHANNELS 3 Zrotation Xrotation Yrotation
                JOINT lPinky2
                {
                  OFFSET 1.82734 -0.647385 -0.700984
                  CHANNELS 3 Zrotation Xrotation Yrotation
                  End Site
                  {
                    OFFSET 1.69225 -0.51767 -0.607171
                  }
                }
              }
            }
          }
        }
      }
    }
  }
  JOINT rButtock
  {
    OFFSET -8.77824 4.35084 1.2192
    CHANNELS 3 Zrotation Xrotation Yrotation
    JOINT rThigh
    {
      OFFSET 0 -1.70687 -2.19456
      CHANNELS 3 Zrotation Xrotation Yrotation
      JOINT rShin
      {
        OFFSET 0 -36.8199 0.73152
        CHANNELS 3 Zrotation Xrotation Yrotation
        JOINT rFoot
        {
          OFFSET 0.73152 -45.1104 -5.12064
          CHANNELS 3 Zrotation Xrotation Yrotation
          End Site
          {
            OFFSET -1.1221 -3.69964 12.103
          }
        }
      }
    }
  }
  JOINT lButtock
  {
    OFFSET 8.77824 4.35084 1.2192
    CHANNELS 3 Zrotation Xrotation Yrotation
    JOINT lThigh
    {
      OFFSET 0 -1.70687 -2.19456
      CHANNELS 3 Zrotation Xrotation Yrotation
      JOINT lShin
      {
        OFFSET 0 -36.8199 0.73152
        CHANNELS 3 Zrotation Xrotation Yrotation
        JOINT lFoot
        {
          OFFSET -0.73152 -45.1104 -5.12064
          CHANNELS 3 Zrotation Xrotation Yrotation
          End Site
          {
            OFFSET 1.1221 -3.69964 12.103
          }
        }
      }
    }
  }
}
MOTION
Frames:	8
Frame Time:	0.00833333
-3.12752 84.2564 34.9118 0.0 0.0 0.0 -1.24151 -0.00398119 -0.0340789 -0.342494 -0.00249265 -0.0593272 1.32444e-14 0.0 1.2424e-17 3.97849e-14 3.18055e-15 1.35111e-16 -0.0 0.0 0.0 -0.0 0.0 0.0 6.75767e-15 1.72772e-17 1.98785e-16 1.40746e-13 4.09993e-16 1.98785e-15 2.40833e-12 -7.06878e-13 -1.59028e-14 2.7549e-11 7.9089e-13 1.145e-13 6.49873e-11 1.80722e-13 2.35361e-13 1.1222e-10 3.05333e-13 3.95979e-13 6.49907e-11 1.81292e-13 2.29e-13 7.73091 5.47488 0.417314 6.49856e-11 1.80198e-13 2.41722e-13 2.90554 0.965183 0.102902 6.49963e-11 1.81093e-13 2.36951e-13 10.2786 0.731801 0.0259123 6.49835e-11 1.82484e-13 2.44903e-13 2.22167 -0.733487 -0.20892 6.66072e-15 1.86361e-17 -9.93923e-17 1.37634e-13 3.29237e-16 1.98785e-16 2.40614e-12 7.31726e-13 -9.54166e-15 2.75529e-11 -6.60611e-13 1.30403e-13 6.49938e-11 1.54002e-13 2.38542e-13 1.12248e-10 2.60805e-13 4.07906e-13 6.49895e-11 1.5545e-13 2.48083e-13 -7.73091 5.47488 -0.417314 6.49951e-11 1.53561e-13 2.3218e-13 -2.90554 0.965183 -0.102902 6.49854e-11 1.54654e-13 2.36156e-13 -10.2786 0.731801 -0.0259123 6.49964e-11 1.55052e-13 2.25819e-13 -2.22167 -0.733487 0.20892 -2.03217e-16 0.0 -3.88251e-19 -0.453831 -1.92099 -0.00952727 -0.00915567 -2.07857 -0.0755528 -0.487463 3.99699 0.136654 2.03217e-16 0.0 3.88251e-19 -1.43727 -5.97115 0.129662 -0.00126425 5.25795 -0.045414 0.507816 0.710744 -0.0722742
-4.75496 83.835 34.0561 -1.6493 -4.968 1.439 -0.923081 -0.317003 0.972681 -0.386114 -0.694928 0.233457 0.0659469 1.29057 -0.233931 0.591446 0.961074 -0.495446 -0.0 0.0 0.0 -0.0 0.0 0.0 1.01318e-14 4.57118e-15 3.20552e-14 23.3231 8.2597 -3.61608 -6.31578 -3.46249 9.136 0.0304169 3.87033 0.539466 -6.51397e-11 1.28841e-10 5.51339e-11 -1.11887e-10 2.21048e-10 9.6874e-11 -6.51341e-11 1.28841e-10 5.51267e-11 7.73091 5.47488 0.417314 -6.51396e-11 1.28838e-10 5.51413e-11 2.90554 0.965183 0.102902 -6.51315e-11 1.28842e-10 5.5135e-11 10.2786 0.731801 0.0259123 -6.51434e-11 1.28844e-10 5.51416e-11 2.22167 -0.733487 -0.20892 1.00742e-14 4.57427e-15 3.17877e-14 -22.8987 10.1195 1.98949 6.01575 -3.22091 -8.80612 -0.000259584 -0.357925 0.0502995 -3.44806e-11 -2.70345e-11 2.90828e-11 -5.95108e-11 -4.62812e-11 5.03658e-11 -3.44824e-11 -2.70319e-11 2.90915e-11 -7.73091 5.47488 -0.417314 -3.44785e-11 -2.70327e-11 2.90791e-11 -2.90554 0.965183 -0.102902 -3.44877e-11 -2.70319e-11 2.90814e-11 -10.2786 0.731801 -0.0259123 -3.44763e-11 -2.70313e-11 2.90724e-11 -2.22167 -0.733487 0.20892 -2.03217e-16 0.0 -3.88251e-19 -6.23587 -2.18865 -0.0105646 -0.00641718 -1.71679 -0.0555721 -0.241544 3.90086 0.099102 2.03217e-16 0.0 3.88251e-19 1.08488 -6.57348 -1.4628 -0.0204418 9.73745 -0.18324 0.90098 -4.94382 4.91107
-4.76004 83.8364 34.0605 -1.663 -4.9806 1.4208 -0.574179 -0.647553 2.03731 -0.424157 -1.42672 0.543206 0.145792 2.65271 -0.482192 1.23628 1.97992 -1.02064 -0.0 0.0 0.0 -0.0 0.0 0.0 1.36088e-14 9.05013e-15 6.59251e-14 49.1551 16.8808 -7.69458 -11.8058 -6.82872 18.8981 -0.0173623 7.95786 1.11761 -2.05603e-10 2.67778e-10 1.16078e-10 -3.53775e-10 4.59409e-10 2.03933e-10 -2.05595e-10 2.67778e-10 1.1607e-10 7.73091 5.47488 0.417314 -2.05601e-10 2.67774e-10 1.16087e-10 2.90554 0.965183 0.102902 -2.05596e-10 2.67781e-10 1.16079e-10 10.2786 0.731801 0.0259123 -2.05607e-10 2.67783e-10 1.16084e-10 2.22167 -0.733487 -0.20892 1.35945e-14 9.05523e-15 6.56921e-14 -47.9178 20.7748 4.30929 11.3107 -6.37173 -18.2025 0.000149002 -0.734031 0.103161 -1.40445e-10 -5.29439e-11 5.89098e-11 -2.42475e-10 -9.05641e-11 1.02023e-10 -1.40444e-10 -5.29399e-11 5.89176e-11 -7.73091 5.47488 -0.417314 -1.40442e-10 -5.29396e-11 5.89088e-11 -2.90554 0.965183 -0.102902 -1.40451e-10 -5.2939e-11 5.89092e-11 -10.2786 0.731801 -0.0259123 -1.40439e-10 -5.29383e-11 5.89017e-11 -2.22167 -0.733487 0.20892 -2.03217e-16 0.0 -3.88251e-19 -12.3483 -2.47164 -0.0116618 -0.00379659 -1.33427 -0.0344603 0.0183147 3.79921 0.0594096 2.03217e-16 0.0 3.88251e-19 3.71543 -7.20413 -3.14925 -0.0165087 14.4729 -0.334475 2.39717 -10.7846 10.3249
-4.76092 83.8365 34.0605 -1.6642 -4.9878 1.4191 -0.253233 -0.941903 2.98656 -0.452115 -2.0796 0.819514 0.229517 3.87145 -0.70322 1.82425 2.88236 -1.48801 -0.0 0.0 0.0 -0.0 0.0 0.0 1.688e-14 1.3679e-14 9.5768e-14 73.3345 24.3647 -11.7996 -15.7389 -9.33273 27.7559 -0.131248 11.6068 1.64842 -3.25394e-10 3.8616e-10 1.64931e-10 -5.60101e-10 6.62534e-10 2.8983e-10 -3.25383e-10 3.86159e-10 1.64922e-10 7.73091 5.47488 0.417314 -3.2539e-10 3.86155e-10 1.64941e-10 2.90554 0.965183 0.102902 -3.25387e-10 3.86163e-10 1.64931e-10 10.2786 0.731801 0.0259123 -3.25397e-10 3.86167e-10 1.64935e-10 2.22167 -0.733487 -0.20892 1.69012e-14 1.36855e-14 9.55618e-14 -71.0809 30.2002 6.80237 15.1653 -8.75138 -26.7115 0.00110685 -1.07377 0.150922 -2.33429e-10 -8.14115e-11 8.67714e-11 -4.03028e-10 -1.39365e-10 1.50281e-10 -2.33426e-10 -8.14065e-11 8.67784e-11 -7.73091 5.47488 -0.417314 -2.33426e-10 -8.14053e-11 8.67729e-11 -2.90554 0.965183 -0.102902 -2.33434e-10 -8.14049e-11 8.67718e-11 -10.2786 0.731801 -0.0259123 -2.33422e-10 -8.14041e-11 8.67657e-11 -2.22167 -0.733487 0.20892 -2.03217e-16 0.0 -3.88251e-19 -17.8 -2.72399 -0.0126411 -0.00169719 -0.99322 -0.0156378 0.249915 3.70861 0.0240237 2.03217e-16 0.0 3.88251e-19 6.02812 -7.75905 -4.66023 0.00929346 18.696 -0.476499 4.69667 -15.7503 15.4151
-4.75733 83.8359 34.0588 -1.6534 -4.982 1.4257 -0.0254559 -1.14684 3.64704 -0.469857 -2.5354 1.01175 0.300523 4.73198 -0.854814 2.23441 3.49463 -1.80919 -0.0 0.0 0.0 -0.0 0.0 0.0 1.96371e-14 1.86827e-14 1.15544e-13 90.9246 29.3984 -15.0669 -18.0003 -10.6871 34.0209 -0.25253 14.1634 2.03252 -3.93501e-10 4.53153e-10 1.83556e-10 -6.7752e-10 7.77566e-10 3.22824e-10 -3.93489e-10 4.53152e-10 1.83547e-10 7.73091 5.47488 0.417314 -3.93497e-10 4.53146e-10 1.83566e-10 2.90554 0.965183 0.102902 -3.93495e-10 4.53156e-10 1.83556e-10 10.2786 0.731801 0.0259123 -3.93505e-10 4.53159e-10 1.83559e-10 2.22167 -0.733487 -0.20892 1.96739e-14 1.86893e-14 1.15345e-13 -87.8401 36.6992 8.94907 17.4157 -10.072 -32.7222 0.00214587 -1.3226 0.185913 -2.93964e-10 -1.16275e-10 1.0972e-10 -5.07549e-10 -1.99462e-10 1.90041e-10 -2.9396e-10 -1.1627e-10 1.09726e-10 -7.73091 5.47488 -0.417314 -2.9396e-10 -1.16268e-10 1.09723e-10 -2.90554 0.965183 -0.102902 -2.93968e-10 -1.16268e-10 1.09721e-10 -10.2786 0.731801 -0.0259123 -2.93956e-10 -1.16267e-10 1.09716e-10 -2.22167 -0.733487 0.20892 -2.03217e-16 0.0 -3.88251e-19 -21.5996 -2.89974 -0.0133244 -0.000366563 -0.755814 -0.00252176 0.411139 3.64563 -0.000614061 2.03217e-16 0.0 3.88251e-19 7.61736 -8.13944 -5.72321 0.0405074 21.6382 -0.580335 6.85912 -19.0109 19.1744
-4.75441 83.8354 34.0576 -1.6471 -4.9682 1.4342 0.0611064 -1.22628 3.90341 -0.480931 -2.71574 1.08583 0.347367 5.09484 -0.907643 2.37573 3.69467 -1.92381 -0.0 0.0 0.0 -0.0 0.0 0.0 2.27004e-14 2.56368e-14 1.27121e-13 97.9999 31.3062 -16.467 -18.7942 -11.1174 36.4993 -0.311956 15.2171 2.19432 -3.99346e-10 4.63653e-10 1.5173e-10 -6.88007e-10 7.95971e-10 2.67805e-10 -3.99334e-10 4.63652e-10 1.51721e-10 7.73091 5.47488 0.417314 -3.99342e-10 4.63646e-10 1.51739e-10 2.90554 0.965183 0.102902 -3.9934e-10 4.63655e-10 1.51731e-10 10.2786 0.731801 0.0259123 -3.99351e-10 4.63658e-10 1.51734e-10 2.22167 -0.733487 -0.20892 2.27168e-14 2.56412e-14 1.26899e-13 -94.5751 39.2304 9.92628 18.2112 -10.5015 -35.0959 0.00274829 -1.45134 0.20402 -3.27831e-10 -1.91084e-10 1.3347e-10 -5.6607e-10 -3.29014e-10 2.3122e-10 -3.27829e-10 -1.91081e-10 1.33476e-10 -7.73091 5.47488 -0.417314 -3.27829e-10 -1.9108e-10 1.33473e-10 -2.90554 0.965183 -0.102902 -3.27835e-10 -1.9108e-10 1.33473e-10 -10.2786 0.731801 -0.0259123 -3.27823e-10 -1.91078e-10 1.3347e-10 -2.22167 -0.733487 0.20892 -2.03217e-16 0.0 -3.88251e-19 -23.0864 -2.96821 -0.0135925 0.000124591 -0.663696 0.00261157 0.47391 3.62145 -0.0102043 2.03217e-16 0.0 3.88251e-19 8.22324 -8.28166 -6.15909 0.0555532 22.7875 -0.620689 7.8434 -20.2406 20.7164
-4.75194 83.8357 34.0583 -1.636 -4.9745 1.4305 0.0444384 -1.21635 3.87103 -0.488741 -2.69934 1.07541 0.374463 5.1021 -0.889675 2.3218 3.60072 -1.89062 -0.0 0.0 0.0 -0.0 0.0 0.0 2.59335e-14 3.39164e-14 1.32561e-13 97.2204 31.0796 -16.3165 -18.716 -11.0808 36.2416 -0.30913 15.1971 2.19095 -3.60237e-10 4.33066e-10 8.42553e-11 -6.21278e-10 7.44085e-10 1.50583e-10 -3.60224e-10 4.33064e-10 8.42461e-11 7.73091 5.47488 0.417314 -3.60235e-10 4.3306e-10 8.42618e-11 2.90554 0.965183 0.102902 -3.6023e-10 4.33065e-10 8.42572e-11 10.2786 0.731801 0.0259123 -3.60243e-10 4.33069e-10 8.42612e-11 2.22167 -0.733487 -0.20892 2.59044e-14 3.39168e-14 1.32294e-13 -93.8281 38.9714 9.82653 18.1295 -10.4621 -34.8432 0.00289088 -1.49397 0.210014 -3.41757e-10 -2.9295e-10 1.57427e-10 -5.90187e-10 -5.05623e-10 2.72778e-10 -3.41758e-10 -2.9295e-10 1.57433e-10 -7.73091 5.47488 -0.417314 -3.41756e-10 -2.9295e-10 1.5743e-10 -2.90554 0.965183 -0.102902 -3.4176e-10 -2.9295e-10 1.57433e-10 -10.2786 0.731801 -0.0259123 -3.41749e-10 -2.92947e-10 1.57431e-10 -2.22167 -0.733487 0.20892 -2.03217e-16 0.0 -3.88251e-19 -22.9212 -2.96005 -0.0135638 7.09272e-05 -0.675347 0.00204374 0.466386 3.62499 -0.00904847 2.03217e-16 0.0 3.88251e-19 8.13413 -8.25594 -6.14569 0.0532036 22.6562 -0.612857 7.74938 -20.126 20.5733
-4.75116 83.8371 34.0615 -1.6266 -4.9919 1.4163 -0.0127536 -1.17242 3.72252 -0.493675 -2.60374 1.0314 0.387875 4.96123 -0.844357 2.19679 3.39969 -1.7996 -0.0 0.0 0.0 -0.0 0.0 0.0 2.75928e-14 4.04447e-14 1.26114e-13 93.2998 30.0041 -15.545 -18.2858 -10.8538 34.8812 -0.279259 14.7096 2.11553 -2.86997e-10 3.61319e-10 1.55315e-11 -4.95605e-10 6.2136e-10 3.07976e-11 -2.86985e-10 3.61317e-10 1.55226e-11 7.73091 5.47488 0.417314 -2.86997e-10 3.61314e-10 1.5536e-11 2.90554 0.965183 0.102902 -2.86989e-10 3.61316e-10 1.55347e-11 10.2786 0.731801 0.0259123 -2.87004e-10 3.61319e-10 1.55396e-11 2.22167 -0.733487 -0.20892 2.75209e-14 4.04411e-14 1.25798e-13 -90.0873 37.5928 9.2941 17.6967 -10.2341 -33.5382 0.00278406 -1.49065 0.209545 -3.17687e-10 -3.56052e-10 1.69177e-10 -5.48636e-10 -6.15228e-10 2.9318e-10 -3.17692e-10 -3.56054e-10 1.69183e-10 -7.73091 5.47488 -0.417314 -3.17688e-10 -3.56056e-10 1.69181e-10 -2.90554 0.965183 -0.102902 -3.17691e-10 -3.56056e-10 1.69185e-10 -10.2786 0.731801 -0.0259123 -3.1768e-10 -3.56052e-10 1.69186e-10 -2.22167 -0.733487 0.20892 -2.03217e-16 0.0 -3.88251e-19 -22.0951 -2.92133 -0.0134165 -0.00020115 -0.728219 -0.0008068 0.430816 3.63941 -0.00360699 2.03217e-16 0.0 3.88251e-19 7.77027 -8.16584 -5.94513 0.043985 22.0129 -0.585977 7.21834 -19.4693 19.7483
